<?xml version="1.0" encoding="utf-8"?>
<!-- Generator: Adobe Illustrator 23.0.4, SVG Export Plug-In . SVG Version: 6.00 Build 0)  -->
<svg version="1.1" id="Layer_1" xmlns="http://www.w3.org/2000/svg" xmlns:xlink="http://www.w3.org/1999/xlink" x="0px" y="0px"
	 viewBox="0 0 1000 1000" style="enable-background:new 0 0 1000 1000;" xml:space="preserve">
<style type="text/css">
	.st0{fill:#FFFFFF;}
	.st1{fill:#215DA5;}
	.st2{fill:#F7B219;}
	.st3{fill:#FF5001;}
</style>
<rect class="st0" width="1000" height="1000"/>
<circle class="st1" cx="400.09" cy="199.97" r="199.97"/>
<g>
	<rect x="600.07" y="0.01" class="st2" width="399.93" height="999.88"/>
</g>
<g>
	<path class="st3" d="M599.9,999.89c0-331.32-268.59-599.9-599.9-599.9l0,399.93c110.44,0,199.97,89.53,199.97,199.97H599.9z"/>
</g>
<g>
	<path d="M120.45,421.13c0-4.54,3.67-8.21,8.21-8.21l0,0c4.54,0,8.21,3.67,8.21,8.21l0,0c0,4.54-3.67,8.21-8.21,8.21l0,0
		C124.12,429.34,120.45,425.67,120.45,421.13z"/>
	<g>
		<g>
			<g>
				<path d="M20.39,972.88c0-4.54,3.67-8.21,8.21-8.21l0,0c4.54,0,8.21,3.67,8.21,8.21l0,0c0,4.54-3.67,8.21-8.21,8.21l0,0
					C24.05,981.09,20.39,977.42,20.39,972.88z M20.39,933.46c0-4.54,3.67-8.21,8.21-8.21l0,0c4.54,0,8.21,3.67,8.21,8.21l0,0
					c0,4.54-3.67,8.21-8.21,8.21l0,0C24.05,941.68,20.39,938.01,20.39,933.46z M20.39,894.05c0-4.54,3.67-8.21,8.21-8.21l0,0
					c4.54,0,8.21,3.67,8.21,8.21l0,0c0,4.54-3.67,8.21-8.21,8.21l0,0C24.05,902.26,20.39,898.6,20.39,894.05z M20.39,854.64
					c0-4.54,3.67-8.21,8.21-8.21l0,0c4.54,0,8.21,3.67,8.21,8.21l0,0c0,4.54-3.67,8.21-8.21,8.21l0,0
					C24.05,862.85,20.39,859.18,20.39,854.64z M20.39,815.23c0-4.54,3.67-8.21,8.21-8.21l0,0c4.54,0,8.21,3.67,8.21,8.21l0,0
					c0,4.54-3.67,8.21-8.21,8.21l0,0C24.05,823.45,20.39,819.77,20.39,815.23z M20.39,775.82c0-4.54,3.67-8.21,8.21-8.21l0,0
					c4.54,0,8.21,3.67,8.21,8.21l0,0c0,4.54-3.67,8.21-8.21,8.21l0,0C24.05,784.03,20.39,780.37,20.39,775.82z M20.39,736.41
					c0-4.54,3.67-8.21,8.21-8.21l0,0c4.54,0,8.21,3.67,8.21,8.21l0,0c0,4.54-3.67,8.21-8.21,8.21l0,0
					C24.05,744.62,20.39,740.95,20.39,736.41z M20.39,697c0-4.54,3.67-8.21,8.21-8.21l0,0c4.54,0,8.21,3.67,8.21,8.21l0,0
					c0,4.54-3.67,8.21-8.21,8.21l0,0C24.05,705.21,20.39,701.54,20.39,697z M20.39,657.59c0-4.54,3.67-8.21,8.21-8.21l0,0
					c4.54,0,8.21,3.67,8.21,8.21l0,0c0,4.54-3.67,8.21-8.21,8.21l0,0C24.05,665.8,20.39,662.13,20.39,657.59z M20.39,618.18
					c0-4.54,3.67-8.21,8.21-8.21l0,0c4.54,0,8.21,3.67,8.21,8.21l0,0c0,4.54-3.67,8.21-8.21,8.21l0,0
					C24.05,626.39,20.39,622.72,20.39,618.18z M20.39,578.77c0-4.54,3.67-8.21,8.21-8.21l0,0c4.54,0,8.21,3.67,8.21,8.21l0,0
					c0,4.54-3.67,8.21-8.21,8.21l0,0C24.05,586.98,20.39,583.31,20.39,578.77z M20.39,539.36c0-4.54,3.67-8.21,8.21-8.21l0,0
					c4.54,0,8.21,3.67,8.21,8.21l0,0c0,4.54-3.67,8.21-8.21,8.21l0,0C24.05,547.57,20.39,543.9,20.39,539.36z M20.39,499.94
					c0-4.54,3.67-8.21,8.21-8.21l0,0c4.54,0,8.21,3.67,8.21,8.21l0,0c0,4.54-3.67,8.21-8.21,8.21l0,0
					C24.05,508.16,20.39,504.49,20.39,499.94z M20.39,460.53c0-4.54,3.67-8.21,8.21-8.21l0,0c4.54,0,8.21,3.67,8.21,8.21l0,0
					c0,4.54-3.67,8.21-8.21,8.21l0,0C24.05,468.74,20.39,465.08,20.39,460.53z M20.39,421.13c0-4.54,3.67-8.21,8.21-8.21l0,0
					c4.54,0,8.21,3.67,8.21,8.21l0,0c0,4.54-3.67,8.21-8.21,8.21l0,0C24.05,429.34,20.39,425.66,20.39,421.13z M20.39,381.71
					c0-4.54,3.67-8.21,8.21-8.21l0,0c4.54,0,8.21,3.67,8.21,8.21l0,0c0,4.54-3.67,8.21-8.21,8.21l0,0
					C24.05,389.92,20.39,386.26,20.39,381.71z M20.39,342.3c0-4.54,3.67-8.21,8.21-8.21l0,0c4.54,0,8.21,3.67,8.21,8.21l0,0
					c0,4.54-3.67,8.21-8.21,8.21l0,0C24.05,350.51,20.39,346.85,20.39,342.3z M20.39,302.89c0-4.54,3.67-8.21,8.21-8.21l0,0
					c4.54,0,8.21,3.67,8.21,8.21l0,0c0,4.54-3.67,8.21-8.21,8.21l0,0C24.05,311.1,20.39,307.43,20.39,302.89z M20.39,263.48
					c0-4.54,3.67-8.21,8.21-8.21l0,0c4.54,0,8.21,3.67,8.21,8.21l0,0c0,4.54-3.67,8.21-8.21,8.21l0,0
					C24.05,271.69,20.39,268.02,20.39,263.48z M20.39,224.07c0-4.54,3.67-8.21,8.21-8.21l0,0c4.54,0,8.21,3.67,8.21,8.21l0,0
					c0,4.54-3.67,8.21-8.21,8.21l0,0C24.05,232.28,20.39,228.61,20.39,224.07z M20.39,184.66c0-4.54,3.67-8.21,8.21-8.21l0,0
					c4.54,0,8.21,3.67,8.21,8.21l0,0c0,4.54-3.67,8.21-8.21,8.21l0,0C24.05,192.87,20.39,189.2,20.39,184.66z M20.39,145.25
					c0-4.54,3.67-8.21,8.21-8.21l0,0c4.54,0,8.21,3.67,8.21,8.21l0,0c0,4.54-3.67,8.21-8.21,8.21l0,0
					C24.05,153.46,20.39,149.79,20.39,145.25z M20.39,105.84c0-4.54,3.67-8.21,8.21-8.21l0,0c4.54,0,8.21,3.67,8.21,8.21l0,0
					c0,4.54-3.67,8.21-8.21,8.21l0,0C24.05,114.05,20.39,110.38,20.39,105.84z M20.39,66.42c0-4.54,3.67-8.21,8.21-8.21l0,0
					c4.54,0,8.21,3.67,8.21,8.21l0,0c0,4.54-3.67,8.21-8.21,8.21l0,0C24.05,74.64,20.39,70.97,20.39,66.42z M20.39,27.02
					c0-4.54,3.67-8.21,8.21-8.21l0,0c4.54,0,8.21,3.67,8.21,8.21l0,0c0,4.54-3.67,8.21-8.21,8.21l0,0
					C24.05,35.23,20.39,31.56,20.39,27.02z"/>
			</g>
			<g>
				<path d="M69.81,972.88c0-4.54,3.67-8.21,8.21-8.21l0,0c4.54,0,8.21,3.67,8.21,8.21l0,0c0,4.54-3.67,8.21-8.21,8.21l0,0
					C73.48,981.09,69.81,977.42,69.81,972.88z M69.81,933.46c0-4.54,3.67-8.21,8.21-8.21l0,0c4.54,0,8.21,3.67,8.21,8.21l0,0
					c0,4.54-3.67,8.21-8.21,8.21l0,0C73.48,941.68,69.81,938.01,69.81,933.46z M69.81,894.05c0-4.54,3.67-8.21,8.21-8.21l0,0
					c4.54,0,8.21,3.67,8.21,8.21l0,0c0,4.54-3.67,8.21-8.21,8.21l0,0C73.48,902.26,69.81,898.6,69.81,894.05z M69.81,854.64
					c0-4.54,3.67-8.21,8.21-8.21l0,0c4.54,0,8.21,3.67,8.21,8.21l0,0c0,4.54-3.67,8.21-8.21,8.21l0,0
					C73.48,862.85,69.81,859.18,69.81,854.64z M69.81,815.23c0-4.54,3.67-8.21,8.21-8.21l0,0c4.54,0,8.21,3.67,8.21,8.21l0,0
					c0,4.54-3.67,8.21-8.21,8.21l0,0C73.48,823.45,69.81,819.77,69.81,815.23z M69.81,775.82c0-4.54,3.67-8.21,8.21-8.21l0,0
					c4.54,0,8.21,3.67,8.21,8.21l0,0c0,4.54-3.67,8.21-8.21,8.21l0,0C73.48,784.03,69.81,780.37,69.81,775.82z M69.81,736.41
					c0-4.54,3.67-8.21,8.21-8.21l0,0c4.54,0,8.21,3.67,8.21,8.21l0,0c0,4.54-3.67,8.21-8.21,8.21l0,0
					C73.48,744.62,69.81,740.95,69.81,736.41z M69.81,697c0-4.54,3.67-8.21,8.21-8.21l0,0c4.54,0,8.21,3.67,8.21,8.21l0,0
					c0,4.54-3.67,8.21-8.21,8.21l0,0C73.48,705.21,69.81,701.54,69.81,697z M69.81,657.59c0-4.54,3.67-8.21,8.21-8.21l0,0
					c4.54,0,8.21,3.67,8.21,8.21l0,0c0,4.54-3.67,8.21-8.21,8.21l0,0C73.48,665.8,69.81,662.13,69.81,657.59z M69.81,618.18
					c0-4.54,3.67-8.21,8.21-8.21l0,0c4.54,0,8.21,3.67,8.21,8.21l0,0c0,4.54-3.67,8.21-8.21,8.21l0,0
					C73.48,626.39,69.81,622.72,69.81,618.18z M69.81,578.77c0-4.54,3.67-8.21,8.21-8.21l0,0c4.54,0,8.21,3.67,8.21,8.21l0,0
					c0,4.54-3.67,8.21-8.21,8.21l0,0C73.48,586.98,69.81,583.31,69.81,578.77z M69.81,539.36c0-4.54,3.67-8.21,8.21-8.21l0,0
					c4.54,0,8.21,3.67,8.21,8.21l0,0c0,4.54-3.67,8.21-8.21,8.21l0,0C73.48,547.57,69.81,543.9,69.81,539.36z M69.81,499.94
					c0-4.54,3.67-8.21,8.21-8.21l0,0c4.54,0,8.21,3.67,8.21,8.21l0,0c0,4.54-3.67,8.21-8.21,8.21l0,0
					C73.48,508.16,69.81,504.49,69.81,499.94z M69.81,460.53c0-4.54,3.67-8.21,8.21-8.21l0,0c4.54,0,8.21,3.67,8.21,8.21l0,0
					c0,4.54-3.67,8.21-8.21,8.21l0,0C73.48,468.74,69.81,465.08,69.81,460.53z M69.81,421.13c0-4.54,3.67-8.21,8.21-8.21l0,0
					c4.54,0,8.21,3.67,8.21,8.21l0,0c0,4.54-3.67,8.21-8.21,8.21l0,0C73.48,429.34,69.81,425.66,69.81,421.13z M69.81,381.71
					c0-4.54,3.67-8.21,8.21-8.21l0,0c4.54,0,8.21,3.67,8.21,8.21l0,0c0,4.54-3.67,8.21-8.21,8.21l0,0
					C73.48,389.92,69.81,386.26,69.81,381.71z M69.81,342.3c0-4.54,3.67-8.21,8.21-8.21l0,0c4.54,0,8.21,3.67,8.21,8.21l0,0
					c0,4.54-3.67,8.21-8.21,8.21l0,0C73.48,350.51,69.81,346.85,69.81,342.3z M69.81,302.89c0-4.54,3.67-8.21,8.21-8.21l0,0
					c4.54,0,8.21,3.67,8.21,8.21l0,0c0,4.54-3.67,8.21-8.21,8.21l0,0C73.48,311.1,69.81,307.43,69.81,302.89z M69.81,263.48
					c0-4.54,3.67-8.21,8.21-8.21l0,0c4.54,0,8.21,3.67,8.21,8.21l0,0c0,4.54-3.67,8.21-8.21,8.21l0,0
					C73.48,271.69,69.81,268.02,69.81,263.48z M69.81,224.07c0-4.54,3.67-8.21,8.21-8.21l0,0c4.54,0,8.21,3.67,8.21,8.21l0,0
					c0,4.54-3.67,8.21-8.21,8.21l0,0C73.48,232.28,69.81,228.61,69.81,224.07z M69.81,184.66c0-4.54,3.67-8.21,8.21-8.21l0,0
					c4.54,0,8.21,3.67,8.21,8.21l0,0c0,4.54-3.67,8.21-8.21,8.21l0,0C73.48,192.87,69.81,189.2,69.81,184.66z M69.81,145.25
					c0-4.54,3.67-8.21,8.21-8.21l0,0c4.54,0,8.21,3.67,8.21,8.21l0,0c0,4.54-3.67,8.21-8.21,8.21l0,0
					C73.48,153.46,69.81,149.79,69.81,145.25z M69.81,105.84c0-4.54,3.67-8.21,8.21-8.21l0,0c4.54,0,8.21,3.67,8.21,8.21l0,0
					c0,4.54-3.67,8.21-8.21,8.21l0,0C73.48,114.05,69.81,110.38,69.81,105.84z M69.81,66.42c0-4.54,3.67-8.21,8.21-8.21l0,0
					c4.54,0,8.21,3.67,8.21,8.21l0,0c0,4.54-3.67,8.21-8.21,8.21l0,0C73.48,74.64,69.81,70.97,69.81,66.42z M69.81,27.02
					c0-4.54,3.67-8.21,8.21-8.21l0,0c4.54,0,8.21,3.67,8.21,8.21l0,0c0,4.54-3.67,8.21-8.21,8.21l0,0
					C73.48,35.23,69.81,31.56,69.81,27.02z"/>
			</g>
			<g>
				<path d="M119.07,972.88c0-4.54,3.67-8.21,8.21-8.21l0,0c4.54,0,8.21,3.67,8.21,8.21l0,0c0,4.54-3.67,8.21-8.21,8.21l0,0
					C122.75,981.09,119.07,977.42,119.07,972.88z M119.07,933.46c0-4.54,3.67-8.21,8.21-8.21l0,0c4.54,0,8.21,3.67,8.21,8.21l0,0
					c0,4.54-3.67,8.21-8.21,8.21l0,0C122.75,941.68,119.07,938.01,119.07,933.46z M119.07,894.05c0-4.54,3.67-8.21,8.21-8.21l0,0
					c4.54,0,8.21,3.67,8.21,8.21l0,0c0,4.54-3.67,8.21-8.21,8.21l0,0C122.75,902.26,119.07,898.6,119.07,894.05z M119.07,854.64
					c0-4.54,3.67-8.21,8.21-8.21l0,0c4.54,0,8.21,3.67,8.21,8.21l0,0c0,4.54-3.67,8.21-8.21,8.21l0,0
					C122.75,862.85,119.07,859.18,119.07,854.64z M119.07,775.82c0-4.54,3.67-8.21,8.21-8.21l0,0c4.54,0,8.21,3.67,8.21,8.21l0,0
					c0,4.54-3.67,8.21-8.21,8.21l0,0C122.75,784.03,119.07,780.37,119.07,775.82z M119.07,736.41c0-4.54,3.67-8.21,8.21-8.21l0,0
					c4.54,0,8.21,3.67,8.21,8.21l0,0c0,4.54-3.67,8.21-8.21,8.21l0,0C122.75,744.62,119.07,740.95,119.07,736.41z M119.07,697
					c0-4.54,3.67-8.21,8.21-8.21l0,0c4.54,0,8.21,3.67,8.21,8.21l0,0c0,4.54-3.67,8.21-8.21,8.21l0,0
					C122.75,705.21,119.07,701.54,119.07,697z M119.07,657.59c0-4.54,3.67-8.21,8.21-8.21l0,0c4.54,0,8.21,3.67,8.21,8.21l0,0
					c0,4.54-3.67,8.21-8.21,8.21l0,0C122.75,665.8,119.07,662.13,119.07,657.59z M119.07,618.18c0-4.54,3.67-8.21,8.21-8.21l0,0
					c4.54,0,8.21,3.67,8.21,8.21l0,0c0,4.54-3.67,8.21-8.21,8.21l0,0C122.75,626.39,119.07,622.72,119.07,618.18z M119.07,578.77
					c0-4.54,3.67-8.21,8.21-8.21l0,0c4.54,0,8.21,3.67,8.21,8.21l0,0c0,4.54-3.67,8.21-8.21,8.21l0,0
					C122.75,586.98,119.07,583.31,119.07,578.77z M119.07,539.36c0-4.54,3.67-8.21,8.21-8.21l0,0c4.54,0,8.21,3.67,8.21,8.21l0,0
					c0,4.54-3.67,8.21-8.21,8.21l0,0C122.75,547.57,119.07,543.9,119.07,539.36z M119.07,499.94c0-4.54,3.67-8.21,8.21-8.21l0,0
					c4.54,0,8.21,3.67,8.21,8.21l0,0c0,4.54-3.67,8.21-8.21,8.21l0,0C122.75,508.16,119.07,504.49,119.07,499.94z M119.07,460.53
					c0-4.54,3.67-8.21,8.21-8.21l0,0c4.54,0,8.21,3.67,8.21,8.21l0,0c0,4.54-3.67,8.21-8.21,8.21l0,0
					C122.75,468.74,119.07,465.08,119.07,460.53z M119.07,381.71c0-4.54,3.67-8.21,8.21-8.21l0,0c4.54,0,8.21,3.67,8.21,8.21l0,0
					c0,4.54-3.67,8.21-8.21,8.21l0,0C122.75,389.92,119.07,386.26,119.07,381.71z M119.07,342.3c0-4.54,3.67-8.21,8.21-8.21l0,0
					c4.54,0,8.21,3.67,8.21,8.21l0,0c0,4.54-3.67,8.21-8.21,8.21l0,0C122.75,350.51,119.07,346.85,119.07,342.3z M119.07,302.89
					c0-4.54,3.67-8.21,8.21-8.21l0,0c4.54,0,8.21,3.67,8.21,8.21l0,0c0,4.54-3.67,8.21-8.21,8.21l0,0
					C122.75,311.1,119.07,307.43,119.07,302.89z M119.07,263.48c0-4.54,3.67-8.21,8.21-8.21l0,0c4.54,0,8.21,3.67,8.21,8.21l0,0
					c0,4.54-3.67,8.21-8.21,8.21l0,0C122.75,271.69,119.07,268.02,119.07,263.48z M119.07,224.07c0-4.54,3.67-8.21,8.21-8.21l0,0
					c4.54,0,8.21,3.67,8.21,8.21l0,0c0,4.54-3.67,8.21-8.21,8.21l0,0C122.75,232.28,119.07,228.61,119.07,224.07z M119.07,184.66
					c0-4.54,3.67-8.21,8.21-8.21l0,0c4.54,0,8.21,3.67,8.21,8.21l0,0c0,4.54-3.67,8.21-8.21,8.21l0,0
					C122.75,192.87,119.07,189.2,119.07,184.66z M119.07,145.25c0-4.54,3.67-8.21,8.21-8.21l0,0c4.54,0,8.21,3.67,8.21,8.21l0,0
					c0,4.54-3.67,8.21-8.21,8.21l0,0C122.75,153.46,119.07,149.79,119.07,145.25z M119.07,105.84c0-4.54,3.67-8.21,8.21-8.21l0,0
					c4.54,0,8.21,3.67,8.21,8.21l0,0c0,4.54-3.67,8.21-8.21,8.21l0,0C122.75,114.05,119.07,110.38,119.07,105.84z M119.07,66.42
					c0-4.54,3.67-8.21,8.21-8.21l0,0c4.54,0,8.21,3.67,8.21,8.21l0,0c0,4.54-3.67,8.21-8.21,8.21l0,0
					C122.75,74.64,119.07,70.97,119.07,66.42z M119.07,27.02c0-4.54,3.67-8.21,8.21-8.21l0,0c4.54,0,8.21,3.67,8.21,8.21l0,0
					c0,4.54-3.67,8.21-8.21,8.21l0,0C122.75,35.23,119.07,31.56,119.07,27.02z"/>
			</g>
			<g>
				<path d="M168.34,972.88c0-4.54,3.67-8.21,8.21-8.21l0,0c4.54,0,8.21,3.67,8.21,8.21l0,0c0,4.54-3.67,8.21-8.21,8.21l0,0
					C172.01,981.09,168.34,977.42,168.34,972.88z M168.34,933.46c0-4.54,3.67-8.21,8.21-8.21l0,0c4.54,0,8.21,3.67,8.21,8.21l0,0
					c0,4.54-3.67,8.21-8.21,8.21l0,0C172.01,941.68,168.34,938.01,168.34,933.46z M168.34,894.05c0-4.54,3.67-8.21,8.21-8.21l0,0
					c4.54,0,8.21,3.67,8.21,8.21l0,0c0,4.54-3.67,8.21-8.21,8.21l0,0C172.01,902.26,168.34,898.6,168.34,894.05z M168.34,854.64
					c0-4.54,3.67-8.21,8.21-8.21l0,0c4.54,0,8.21,3.67,8.21,8.21l0,0c0,4.54-3.67,8.21-8.21,8.21l0,0
					C172.01,862.85,168.34,859.18,168.34,854.64z M168.34,815.23c0-4.54,3.67-8.21,8.21-8.21l0,0c4.54,0,8.21,3.67,8.21,8.21l0,0
					c0,4.54-3.67,8.21-8.21,8.21l0,0C172.01,823.45,168.34,819.77,168.34,815.23z M168.34,775.82c0-4.54,3.67-8.21,8.21-8.21l0,0
					c4.54,0,8.21,3.67,8.21,8.21l0,0c0,4.54-3.67,8.21-8.21,8.21l0,0C172.01,784.03,168.34,780.37,168.34,775.82z M168.34,736.41
					c0-4.54,3.67-8.21,8.21-8.21l0,0c4.54,0,8.21,3.67,8.21,8.21l0,0c0,4.54-3.67,8.21-8.21,8.21l0,0
					C172.01,744.62,168.34,740.95,168.34,736.41z M168.34,697c0-4.54,3.67-8.21,8.21-8.21l0,0c4.54,0,8.21,3.67,8.21,8.21l0,0
					c0,4.54-3.67,8.21-8.21,8.21l0,0C172.01,705.21,168.34,701.54,168.34,697z M168.34,657.59c0-4.54,3.67-8.21,8.21-8.21l0,0
					c4.54,0,8.21,3.67,8.21,8.21l0,0c0,4.54-3.67,8.21-8.21,8.21l0,0C172.01,665.8,168.34,662.13,168.34,657.59z M168.34,618.18
					c0-4.54,3.67-8.21,8.21-8.21l0,0c4.54,0,8.21,3.67,8.21,8.21l0,0c0,4.54-3.67,8.21-8.21,8.21l0,0
					C172.01,626.39,168.34,622.72,168.34,618.18z M168.34,578.77c0-4.54,3.67-8.21,8.21-8.21l0,0c4.54,0,8.21,3.67,8.21,8.21l0,0
					c0,4.54-3.67,8.21-8.21,8.21l0,0C172.01,586.98,168.34,583.31,168.34,578.77z M168.34,539.36c0-4.54,3.67-8.21,8.21-8.21l0,0
					c4.54,0,8.21,3.67,8.21,8.21l0,0c0,4.54-3.67,8.21-8.21,8.21l0,0C172.01,547.57,168.34,543.9,168.34,539.36z M168.34,499.94
					c0-4.54,3.67-8.21,8.21-8.21l0,0c4.54,0,8.21,3.67,8.21,8.21l0,0c0,4.54-3.67,8.21-8.21,8.21l0,0
					C172.01,508.16,168.34,504.49,168.34,499.94z M168.34,460.53c0-4.54,3.67-8.21,8.21-8.21l0,0c4.54,0,8.21,3.67,8.21,8.21l0,0
					c0,4.54-3.67,8.21-8.21,8.21l0,0C172.01,468.74,168.34,465.08,168.34,460.53z M168.34,421.13c0-4.54,3.67-8.21,8.21-8.21l0,0
					c4.54,0,8.21,3.67,8.21,8.21l0,0c0,4.54-3.67,8.21-8.21,8.21l0,0C172.01,429.34,168.34,425.66,168.34,421.13z M168.34,381.71
					c0-4.54,3.67-8.21,8.21-8.21l0,0c4.54,0,8.21,3.67,8.21,8.21l0,0c0,4.54-3.67,8.21-8.21,8.21l0,0
					C172.01,389.92,168.34,386.26,168.34,381.71z M168.34,342.3c0-4.54,3.67-8.21,8.21-8.21l0,0c4.54,0,8.21,3.67,8.21,8.21l0,0
					c0,4.54-3.67,8.21-8.21,8.21l0,0C172.01,350.51,168.34,346.85,168.34,342.3z M168.34,302.89c0-4.54,3.67-8.21,8.21-8.21l0,0
					c4.54,0,8.21,3.67,8.21,8.21l0,0c0,4.54-3.67,8.21-8.21,8.21l0,0C172.01,311.1,168.34,307.43,168.34,302.89z M168.34,263.48
					c0-4.54,3.67-8.21,8.21-8.21l0,0c4.54,0,8.21,3.67,8.21,8.21l0,0c0,4.54-3.67,8.21-8.21,8.21l0,0
					C172.01,271.69,168.34,268.02,168.34,263.48z M168.34,224.07c0-4.54,3.67-8.21,8.21-8.21l0,0c4.54,0,8.21,3.67,8.21,8.21l0,0
					c0,4.54-3.67,8.21-8.21,8.21l0,0C172.01,232.28,168.34,228.61,168.34,224.07z M168.34,184.66c0-4.54,3.67-8.21,8.21-8.21l0,0
					c4.54,0,8.21,3.67,8.21,8.21l0,0c0,4.54-3.67,8.21-8.21,8.21l0,0C172.01,192.87,168.34,189.2,168.34,184.66z M168.34,145.25
					c0-4.54,3.67-8.21,8.21-8.21l0,0c4.54,0,8.21,3.67,8.21,8.21l0,0c0,4.54-3.67,8.21-8.21,8.21l0,0
					C172.01,153.46,168.34,149.79,168.34,145.25z M168.34,105.84c0-4.54,3.67-8.21,8.21-8.21l0,0c4.54,0,8.21,3.67,8.21,8.21l0,0
					c0,4.54-3.67,8.21-8.21,8.21l0,0C172.01,114.05,168.34,110.38,168.34,105.84z M168.34,66.42c0-4.54,3.67-8.21,8.21-8.21l0,0
					c4.54,0,8.21,3.67,8.21,8.21l0,0c0,4.54-3.67,8.21-8.21,8.21l0,0C172.01,74.64,168.34,70.97,168.34,66.42z M168.34,27.02
					c0-4.54,3.67-8.21,8.21-8.21l0,0c4.54,0,8.21,3.67,8.21,8.21l0,0c0,4.54-3.67,8.21-8.21,8.21l0,0
					C172.01,35.23,168.34,31.56,168.34,27.02z"/>
			</g>
			<g>
				<path d="M217.44,972.88c0-4.54,3.67-8.21,8.21-8.21l0,0c4.54,0,8.21,3.67,8.21,8.21l0,0c0,4.54-3.67,8.21-8.21,8.21l0,0
					C221.11,981.09,217.44,977.42,217.44,972.88z M217.44,933.46c0-4.54,3.67-8.21,8.21-8.21l0,0c4.54,0,8.21,3.67,8.21,8.21l0,0
					c0,4.54-3.67,8.21-8.21,8.21l0,0C221.11,941.68,217.44,938.01,217.44,933.46z M217.44,894.05c0-4.54,3.67-8.21,8.21-8.21l0,0
					c4.54,0,8.21,3.67,8.21,8.21l0,0c0,4.54-3.67,8.21-8.21,8.21l0,0C221.11,902.26,217.44,898.6,217.44,894.05z M217.44,854.64
					c0-4.54,3.67-8.21,8.21-8.21l0,0c4.54,0,8.21,3.67,8.21,8.21l0,0c0,4.54-3.67,8.21-8.21,8.21l0,0
					C221.11,862.85,217.44,859.18,217.44,854.64z M217.44,815.23c0-4.54,3.67-8.21,8.21-8.21l0,0c4.54,0,8.21,3.67,8.21,8.21l0,0
					c0,4.54-3.67,8.21-8.21,8.21l0,0C221.11,823.45,217.44,819.77,217.44,815.23z M217.44,775.82c0-4.54,3.67-8.21,8.21-8.21l0,0
					c4.54,0,8.21,3.67,8.21,8.21l0,0c0,4.54-3.67,8.21-8.21,8.21l0,0C221.11,784.03,217.44,780.37,217.44,775.82z M217.44,736.41
					c0-4.54,3.67-8.21,8.21-8.21l0,0c4.54,0,8.21,3.67,8.21,8.21l0,0c0,4.54-3.67,8.21-8.21,8.21l0,0
					C221.11,744.62,217.44,740.95,217.44,736.41z M217.44,697c0-4.54,3.67-8.21,8.21-8.21l0,0c4.54,0,8.21,3.67,8.21,8.21l0,0
					c0,4.54-3.67,8.21-8.21,8.21l0,0C221.11,705.21,217.44,701.54,217.44,697z M217.44,657.59c0-4.54,3.67-8.21,8.21-8.21l0,0
					c4.54,0,8.21,3.67,8.21,8.21l0,0c0,4.54-3.67,8.21-8.21,8.21l0,0C221.11,665.8,217.44,662.13,217.44,657.59z M217.44,618.18
					c0-4.54,3.67-8.21,8.21-8.21l0,0c4.54,0,8.21,3.67,8.21,8.21l0,0c0,4.54-3.67,8.21-8.21,8.21l0,0
					C221.11,626.39,217.44,622.72,217.44,618.18z M217.44,578.77c0-4.54,3.67-8.21,8.21-8.21l0,0c4.54,0,8.21,3.67,8.21,8.21l0,0
					c0,4.54-3.67,8.21-8.21,8.21l0,0C221.11,586.98,217.44,583.31,217.44,578.77z M217.44,539.36c0-4.54,3.67-8.21,8.21-8.21l0,0
					c4.54,0,8.21,3.67,8.21,8.21l0,0c0,4.54-3.67,8.21-8.21,8.21l0,0C221.11,547.57,217.44,543.9,217.44,539.36z M217.44,499.94
					c0-4.54,3.67-8.21,8.21-8.21l0,0c4.54,0,8.21,3.67,8.21,8.21l0,0c0,4.54-3.67,8.21-8.21,8.21l0,0
					C221.11,508.16,217.44,504.49,217.44,499.94z M217.44,460.53c0-4.54,3.67-8.21,8.21-8.21l0,0c4.54,0,8.21,3.67,8.21,8.21l0,0
					c0,4.54-3.67,8.21-8.21,8.21l0,0C221.11,468.74,217.44,465.08,217.44,460.53z M217.44,421.13c0-4.54,3.67-8.21,8.21-8.21l0,0
					c4.54,0,8.21,3.67,8.21,8.21l0,0c0,4.54-3.67,8.21-8.21,8.21l0,0C221.11,429.34,217.44,425.66,217.44,421.13z M217.44,381.71
					c0-4.54,3.67-8.21,8.21-8.21l0,0c4.54,0,8.21,3.67,8.21,8.21l0,0c0,4.54-3.67,8.21-8.21,8.21l0,0
					C221.11,389.92,217.44,386.26,217.44,381.71z M217.44,342.3c0-4.54,3.67-8.21,8.21-8.21l0,0c4.54,0,8.21,3.67,8.21,8.21l0,0
					c0,4.54-3.67,8.21-8.21,8.21l0,0C221.11,350.51,217.44,346.85,217.44,342.3z M217.44,302.89c0-4.54,3.67-8.21,8.21-8.21l0,0
					c4.54,0,8.21,3.67,8.21,8.21l0,0c0,4.54-3.67,8.21-8.21,8.21l0,0C221.11,311.1,217.44,307.43,217.44,302.89z M217.44,263.48
					c0-4.54,3.67-8.21,8.21-8.21l0,0c4.54,0,8.21,3.67,8.21,8.21l0,0c0,4.54-3.67,8.21-8.21,8.21l0,0
					C221.11,271.69,217.44,268.02,217.44,263.48z M217.44,224.07c0-4.54,3.67-8.21,8.21-8.21l0,0c4.54,0,8.21,3.67,8.21,8.21l0,0
					c0,4.54-3.67,8.21-8.21,8.21l0,0C221.11,232.28,217.44,228.61,217.44,224.07z M217.44,184.66c0-4.54,3.67-8.21,8.21-8.21l0,0
					c4.54,0,8.21,3.67,8.21,8.21l0,0c0,4.54-3.67,8.21-8.21,8.21l0,0C221.11,192.87,217.44,189.2,217.44,184.66z M217.44,145.25
					c0-4.54,3.67-8.21,8.21-8.21l0,0c4.54,0,8.21,3.67,8.21,8.21l0,0c0,4.54-3.67,8.21-8.21,8.21l0,0
					C221.11,153.46,217.44,149.79,217.44,145.25z M217.44,105.84c0-4.54,3.67-8.21,8.21-8.21l0,0c4.54,0,8.21,3.67,8.21,8.21l0,0
					c0,4.54-3.67,8.21-8.21,8.21l0,0C221.11,114.05,217.44,110.38,217.44,105.84z M217.44,66.42c0-4.54,3.67-8.21,8.21-8.21l0,0
					c4.54,0,8.21,3.67,8.21,8.21l0,0c0,4.54-3.67,8.21-8.21,8.21l0,0C221.11,74.64,217.44,70.97,217.44,66.42z M217.44,27.02
					c0-4.54,3.67-8.21,8.21-8.21l0,0c4.54,0,8.21,3.67,8.21,8.21l0,0c0,4.54-3.67,8.21-8.21,8.21l0,0
					C221.11,35.23,217.44,31.56,217.44,27.02z"/>
			</g>
			<g>
				<path d="M266.87,972.88c0-4.54,3.67-8.21,8.21-8.21l0,0c4.54,0,8.21,3.67,8.21,8.21l0,0c0,4.54-3.67,8.21-8.21,8.21l0,0
					C270.54,981.09,266.87,977.42,266.87,972.88z M266.87,933.46c0-4.54,3.67-8.21,8.21-8.21l0,0c4.54,0,8.21,3.67,8.21,8.21l0,0
					c0,4.54-3.67,8.21-8.21,8.21l0,0C270.54,941.68,266.87,938.01,266.87,933.46z M266.87,894.05c0-4.54,3.67-8.21,8.21-8.21l0,0
					c4.54,0,8.21,3.67,8.21,8.21l0,0c0,4.54-3.67,8.21-8.21,8.21l0,0C270.54,902.26,266.87,898.6,266.87,894.05z M266.87,854.64
					c0-4.54,3.67-8.21,8.21-8.21l0,0c4.54,0,8.21,3.67,8.21,8.21l0,0c0,4.54-3.67,8.21-8.21,8.21l0,0
					C270.54,862.85,266.87,859.18,266.87,854.64z M266.87,815.23c0-4.54,3.67-8.21,8.21-8.21l0,0c4.54,0,8.21,3.67,8.21,8.21l0,0
					c0,4.54-3.67,8.21-8.21,8.21l0,0C270.54,823.45,266.87,819.77,266.87,815.23z M266.87,775.82c0-4.54,3.67-8.21,8.21-8.21l0,0
					c4.54,0,8.21,3.67,8.21,8.21l0,0c0,4.54-3.67,8.21-8.21,8.21l0,0C270.54,784.03,266.87,780.37,266.87,775.82z M266.87,736.41
					c0-4.54,3.67-8.21,8.21-8.21l0,0c4.54,0,8.21,3.67,8.21,8.21l0,0c0,4.54-3.67,8.21-8.21,8.21l0,0
					C270.54,744.62,266.87,740.95,266.87,736.41z M266.87,697c0-4.54,3.67-8.21,8.21-8.21l0,0c4.54,0,8.21,3.67,8.21,8.21l0,0
					c0,4.54-3.67,8.21-8.21,8.21l0,0C270.54,705.21,266.87,701.54,266.87,697z M266.87,657.59c0-4.54,3.67-8.21,8.21-8.21l0,0
					c4.54,0,8.21,3.67,8.21,8.21l0,0c0,4.54-3.67,8.21-8.21,8.21l0,0C270.54,665.8,266.87,662.13,266.87,657.59z M266.87,618.18
					c0-4.54,3.67-8.21,8.21-8.21l0,0c4.54,0,8.21,3.67,8.21,8.21l0,0c0,4.54-3.67,8.21-8.21,8.21l0,0
					C270.54,626.39,266.87,622.72,266.87,618.18z M266.87,578.77c0-4.54,3.67-8.21,8.21-8.21l0,0c4.54,0,8.21,3.67,8.21,8.21l0,0
					c0,4.54-3.67,8.21-8.21,8.21l0,0C270.54,586.98,266.87,583.31,266.87,578.77z M266.87,539.36c0-4.54,3.67-8.21,8.21-8.21l0,0
					c4.54,0,8.21,3.67,8.21,8.21l0,0c0,4.54-3.67,8.21-8.21,8.21l0,0C270.54,547.57,266.87,543.9,266.87,539.36z M266.87,499.94
					c0-4.54,3.67-8.21,8.21-8.21l0,0c4.54,0,8.21,3.67,8.21,8.21l0,0c0,4.54-3.67,8.21-8.21,8.21l0,0
					C270.54,508.16,266.87,504.49,266.87,499.94z M266.87,460.53c0-4.54,3.67-8.21,8.21-8.21l0,0c4.54,0,8.21,3.67,8.21,8.21l0,0
					c0,4.54-3.67,8.21-8.21,8.21l0,0C270.54,468.74,266.87,465.08,266.87,460.53z M266.87,421.13c0-4.54,3.67-8.21,8.21-8.21l0,0
					c4.54,0,8.21,3.67,8.21,8.21l0,0c0,4.54-3.67,8.21-8.21,8.21l0,0C270.54,429.34,266.87,425.66,266.87,421.13z M266.87,381.71
					c0-4.54,3.67-8.21,8.21-8.21l0,0c4.54,0,8.21,3.67,8.21,8.21l0,0c0,4.54-3.67,8.21-8.21,8.21l0,0
					C270.54,389.92,266.87,386.26,266.87,381.71z M266.87,342.3c0-4.54,3.67-8.21,8.21-8.21l0,0c4.54,0,8.21,3.67,8.21,8.21l0,0
					c0,4.54-3.67,8.21-8.21,8.21l0,0C270.54,350.51,266.87,346.85,266.87,342.3z M266.87,302.89c0-4.54,3.67-8.21,8.21-8.21l0,0
					c4.54,0,8.21,3.67,8.21,8.21l0,0c0,4.54-3.67,8.21-8.21,8.21l0,0C270.54,311.1,266.87,307.43,266.87,302.89z M266.87,263.48
					c0-4.54,3.67-8.21,8.21-8.21l0,0c4.54,0,8.21,3.67,8.21,8.21l0,0c0,4.54-3.67,8.21-8.21,8.21l0,0
					C270.54,271.69,266.87,268.02,266.87,263.48z M266.87,224.07c0-4.54,3.67-8.21,8.21-8.21l0,0c4.54,0,8.21,3.67,8.21,8.21l0,0
					c0,4.54-3.67,8.21-8.21,8.21l0,0C270.54,232.28,266.87,228.61,266.87,224.07z M266.87,184.66c0-4.54,3.67-8.21,8.21-8.21l0,0
					c4.54,0,8.21,3.67,8.21,8.21l0,0c0,4.54-3.67,8.21-8.21,8.21l0,0C270.54,192.87,266.87,189.2,266.87,184.66z M266.87,145.25
					c0-4.54,3.67-8.21,8.21-8.21l0,0c4.54,0,8.21,3.67,8.21,8.21l0,0c0,4.54-3.67,8.21-8.21,8.21l0,0
					C270.54,153.46,266.87,149.79,266.87,145.25z M266.87,105.84c0-4.54,3.67-8.21,8.21-8.21l0,0c4.54,0,8.21,3.67,8.21,8.21l0,0
					c0,4.54-3.67,8.21-8.21,8.21l0,0C270.54,114.05,266.87,110.38,266.87,105.84z M266.87,66.42c0-4.54,3.67-8.21,8.21-8.21l0,0
					c4.54,0,8.21,3.67,8.21,8.21l0,0c0,4.54-3.67,8.21-8.21,8.21l0,0C270.54,74.64,266.87,70.97,266.87,66.42z M266.87,27.02
					c0-4.54,3.67-8.21,8.21-8.21l0,0c4.54,0,8.21,3.67,8.21,8.21l0,0c0,4.54-3.67,8.21-8.21,8.21l0,0
					C270.54,35.23,266.87,31.56,266.87,27.02z"/>
			</g>
			<g>
				<path d="M316.13,972.88c0-4.54,3.67-8.21,8.21-8.21l0,0c4.54,0,8.21,3.67,8.21,8.21l0,0c0,4.54-3.67,8.21-8.21,8.21l0,0
					C319.8,981.09,316.13,977.42,316.13,972.88z M316.13,933.46c0-4.54,3.67-8.21,8.21-8.21l0,0c4.54,0,8.21,3.67,8.21,8.21l0,0
					c0,4.54-3.67,8.21-8.21,8.21l0,0C319.8,941.68,316.13,938.01,316.13,933.46z M316.13,894.05c0-4.54,3.67-8.21,8.21-8.21l0,0
					c4.54,0,8.21,3.67,8.21,8.21l0,0c0,4.54-3.67,8.21-8.21,8.21l0,0C319.8,902.26,316.13,898.6,316.13,894.05z M316.13,854.64
					c0-4.54,3.67-8.21,8.21-8.21l0,0c4.54,0,8.21,3.67,8.21,8.21l0,0c0,4.54-3.67,8.21-8.21,8.21l0,0
					C319.8,862.85,316.13,859.18,316.13,854.64z M316.13,815.23c0-4.54,3.67-8.21,8.21-8.21l0,0c4.54,0,8.21,3.67,8.21,8.21l0,0
					c0,4.54-3.67,8.21-8.21,8.21l0,0C319.8,823.45,316.13,819.77,316.13,815.23z M316.13,775.82c0-4.54,3.67-8.21,8.21-8.21l0,0
					c4.54,0,8.21,3.67,8.21,8.21l0,0c0,4.54-3.67,8.21-8.21,8.21l0,0C319.8,784.03,316.13,780.37,316.13,775.82z M316.13,736.41
					c0-4.54,3.67-8.21,8.21-8.21l0,0c4.54,0,8.21,3.67,8.21,8.21l0,0c0,4.54-3.67,8.21-8.21,8.21l0,0
					C319.8,744.62,316.13,740.95,316.13,736.41z M316.13,697c0-4.54,3.67-8.21,8.21-8.21l0,0c4.54,0,8.21,3.67,8.21,8.21l0,0
					c0,4.54-3.67,8.21-8.21,8.21l0,0C319.8,705.21,316.13,701.54,316.13,697z M316.13,657.59c0-4.54,3.67-8.21,8.21-8.21l0,0
					c4.54,0,8.21,3.67,8.21,8.21l0,0c0,4.54-3.67,8.21-8.21,8.21l0,0C319.8,665.8,316.13,662.13,316.13,657.59z M316.13,618.18
					c0-4.54,3.67-8.21,8.21-8.21l0,0c4.54,0,8.21,3.67,8.21,8.21l0,0c0,4.54-3.67,8.21-8.21,8.21l0,0
					C319.8,626.39,316.13,622.72,316.13,618.18z M316.13,578.77c0-4.54,3.67-8.21,8.21-8.21l0,0c4.54,0,8.21,3.67,8.21,8.21l0,0
					c0,4.54-3.67,8.21-8.21,8.21l0,0C319.8,586.98,316.13,583.31,316.13,578.77z M316.13,539.36c0-4.54,3.67-8.21,8.21-8.21l0,0
					c4.54,0,8.21,3.67,8.21,8.21l0,0c0,4.54-3.67,8.21-8.21,8.21l0,0C319.8,547.57,316.13,543.9,316.13,539.36z M316.13,499.94
					c0-4.54,3.67-8.21,8.21-8.21l0,0c4.54,0,8.21,3.67,8.21,8.21l0,0c0,4.54-3.67,8.21-8.21,8.21l0,0
					C319.8,508.16,316.13,504.49,316.13,499.94z M316.13,460.53c0-4.54,3.67-8.21,8.21-8.21l0,0c4.54,0,8.21,3.67,8.21,8.21l0,0
					c0,4.54-3.67,8.21-8.21,8.21l0,0C319.8,468.74,316.13,465.08,316.13,460.53z M316.13,421.13c0-4.54,3.67-8.21,8.21-8.21l0,0
					c4.54,0,8.21,3.67,8.21,8.21l0,0c0,4.54-3.67,8.21-8.21,8.21l0,0C319.8,429.34,316.13,425.66,316.13,421.13z M316.13,381.71
					c0-4.54,3.67-8.21,8.21-8.21l0,0c4.54,0,8.21,3.67,8.21,8.21l0,0c0,4.54-3.67,8.21-8.21,8.21l0,0
					C319.8,389.92,316.13,386.26,316.13,381.71z M316.13,342.3c0-4.54,3.67-8.21,8.21-8.21l0,0c4.54,0,8.21,3.67,8.21,8.21l0,0
					c0,4.54-3.67,8.21-8.21,8.21l0,0C319.8,350.51,316.13,346.85,316.13,342.3z M316.13,302.89c0-4.54,3.67-8.21,8.21-8.21l0,0
					c4.54,0,8.21,3.67,8.21,8.21l0,0c0,4.54-3.67,8.21-8.21,8.21l0,0C319.8,311.1,316.13,307.43,316.13,302.89z M316.13,263.48
					c0-4.54,3.67-8.21,8.21-8.21l0,0c4.54,0,8.21,3.67,8.21,8.21l0,0c0,4.54-3.67,8.21-8.21,8.21l0,0
					C319.8,271.69,316.13,268.02,316.13,263.48z M316.13,224.07c0-4.54,3.67-8.21,8.21-8.21l0,0c4.54,0,8.21,3.67,8.21,8.21l0,0
					c0,4.54-3.67,8.21-8.21,8.21l0,0C319.8,232.28,316.13,228.61,316.13,224.07z M316.13,184.66c0-4.54,3.67-8.21,8.21-8.21l0,0
					c4.54,0,8.21,3.67,8.21,8.21l0,0c0,4.54-3.67,8.21-8.21,8.21l0,0C319.8,192.87,316.13,189.2,316.13,184.66z M316.13,145.25
					c0-4.54,3.67-8.21,8.21-8.21l0,0c4.54,0,8.21,3.67,8.21,8.21l0,0c0,4.54-3.67,8.21-8.21,8.21l0,0
					C319.8,153.46,316.13,149.79,316.13,145.25z M316.13,105.84c0-4.54,3.67-8.21,8.21-8.21l0,0c4.54,0,8.21,3.67,8.21,8.21l0,0
					c0,4.54-3.67,8.21-8.21,8.21l0,0C319.8,114.05,316.13,110.38,316.13,105.84z M316.13,66.42c0-4.54,3.67-8.21,8.21-8.21l0,0
					c4.54,0,8.21,3.67,8.21,8.21l0,0c0,4.54-3.67,8.21-8.21,8.21l0,0C319.8,74.64,316.13,70.97,316.13,66.42z M316.13,27.02
					c0-4.54,3.67-8.21,8.21-8.21l0,0c4.54,0,8.21,3.67,8.21,8.21l0,0c0,4.54-3.67,8.21-8.21,8.21l0,0
					C319.8,35.23,316.13,31.56,316.13,27.02z"/>
			</g>
			<g>
				<path d="M365.39,972.88c0-4.54,3.67-8.21,8.21-8.21l0,0c4.54,0,8.21,3.67,8.21,8.21l0,0c0,4.54-3.67,8.21-8.21,8.21l0,0
					C369.06,981.09,365.39,977.42,365.39,972.88z M365.39,933.46c0-4.54,3.67-8.21,8.21-8.21l0,0c4.54,0,8.21,3.67,8.21,8.21l0,0
					c0,4.54-3.67,8.21-8.21,8.21l0,0C369.06,941.68,365.39,938.01,365.39,933.46z M365.39,894.05c0-4.54,3.67-8.21,8.21-8.21l0,0
					c4.54,0,8.21,3.67,8.21,8.21l0,0c0,4.54-3.67,8.21-8.21,8.21l0,0C369.06,902.26,365.39,898.6,365.39,894.05z M365.39,854.64
					c0-4.54,3.67-8.21,8.21-8.21l0,0c4.54,0,8.21,3.67,8.21,8.21l0,0c0,4.54-3.67,8.21-8.21,8.21l0,0
					C369.06,862.85,365.39,859.18,365.39,854.64z M365.39,815.23c0-4.54,3.67-8.21,8.21-8.21l0,0c4.54,0,8.21,3.67,8.21,8.21l0,0
					c0,4.54-3.67,8.21-8.21,8.21l0,0C369.06,823.45,365.39,819.77,365.39,815.23z M365.39,775.82c0-4.54,3.67-8.21,8.21-8.21l0,0
					c4.54,0,8.21,3.67,8.21,8.21l0,0c0,4.54-3.67,8.21-8.21,8.21l0,0C369.06,784.03,365.39,780.37,365.39,775.82z M365.39,736.41
					c0-4.54,3.67-8.21,8.21-8.21l0,0c4.54,0,8.21,3.67,8.21,8.21l0,0c0,4.54-3.67,8.21-8.21,8.21l0,0
					C369.06,744.62,365.39,740.95,365.39,736.41z M365.39,697c0-4.54,3.67-8.21,8.21-8.21l0,0c4.54,0,8.21,3.67,8.21,8.21l0,0
					c0,4.54-3.67,8.21-8.21,8.21l0,0C369.06,705.21,365.39,701.54,365.39,697z M365.39,657.59c0-4.54,3.67-8.21,8.21-8.21l0,0
					c4.54,0,8.21,3.67,8.21,8.21l0,0c0,4.54-3.67,8.21-8.21,8.21l0,0C369.06,665.8,365.39,662.13,365.39,657.59z M365.39,618.18
					c0-4.54,3.67-8.21,8.21-8.21l0,0c4.54,0,8.21,3.67,8.21,8.21l0,0c0,4.54-3.67,8.21-8.21,8.21l0,0
					C369.06,626.39,365.39,622.72,365.39,618.18z M365.39,578.77c0-4.54,3.67-8.21,8.21-8.21l0,0c4.54,0,8.21,3.67,8.21,8.21l0,0
					c0,4.54-3.67,8.21-8.21,8.21l0,0C369.06,586.98,365.39,583.31,365.39,578.77z M365.39,539.36c0-4.54,3.67-8.21,8.21-8.21l0,0
					c4.54,0,8.21,3.67,8.21,8.21l0,0c0,4.54-3.67,8.21-8.21,8.21l0,0C369.06,547.57,365.39,543.9,365.39,539.36z M365.39,499.94
					c0-4.54,3.67-8.21,8.21-8.21l0,0c4.54,0,8.21,3.67,8.21,8.21l0,0c0,4.54-3.67,8.21-8.21,8.21l0,0
					C369.06,508.16,365.39,504.49,365.39,499.94z M365.39,460.53c0-4.54,3.67-8.21,8.21-8.21l0,0c4.54,0,8.21,3.67,8.21,8.21l0,0
					c0,4.54-3.67,8.21-8.21,8.21l0,0C369.06,468.74,365.39,465.08,365.39,460.53z M365.39,421.13c0-4.54,3.67-8.21,8.21-8.21l0,0
					c4.54,0,8.21,3.67,8.21,8.21l0,0c0,4.54-3.67,8.21-8.21,8.21l0,0C369.06,429.34,365.39,425.66,365.39,421.13z M365.39,381.71
					c0-4.54,3.67-8.21,8.21-8.21l0,0c4.54,0,8.21,3.67,8.21,8.21l0,0c0,4.54-3.67,8.21-8.21,8.21l0,0
					C369.06,389.92,365.39,386.26,365.39,381.71z M365.39,342.3c0-4.54,3.67-8.21,8.21-8.21l0,0c4.54,0,8.21,3.67,8.21,8.21l0,0
					c0,4.54-3.67,8.21-8.21,8.21l0,0C369.06,350.51,365.39,346.85,365.39,342.3z M365.39,302.89c0-4.54,3.67-8.21,8.21-8.21l0,0
					c4.54,0,8.21,3.67,8.21,8.21l0,0c0,4.54-3.67,8.21-8.21,8.21l0,0C369.06,311.1,365.39,307.43,365.39,302.89z M365.39,263.48
					c0-4.54,3.67-8.21,8.21-8.21l0,0c4.54,0,8.21,3.67,8.21,8.21l0,0c0,4.54-3.67,8.21-8.21,8.21l0,0
					C369.06,271.69,365.39,268.02,365.39,263.48z M365.39,224.07c0-4.54,3.67-8.21,8.21-8.21l0,0c4.54,0,8.21,3.67,8.21,8.21l0,0
					c0,4.54-3.67,8.21-8.21,8.21l0,0C369.06,232.28,365.39,228.61,365.39,224.07z M365.39,184.66c0-4.54,3.67-8.21,8.21-8.21l0,0
					c4.54,0,8.21,3.67,8.21,8.21l0,0c0,4.54-3.67,8.21-8.21,8.21l0,0C369.06,192.87,365.39,189.2,365.39,184.66z M365.39,145.25
					c0-4.54,3.67-8.21,8.21-8.21l0,0c4.54,0,8.21,3.67,8.21,8.21l0,0c0,4.54-3.67,8.21-8.21,8.21l0,0
					C369.06,153.46,365.39,149.79,365.39,145.25z M365.39,105.84c0-4.54,3.67-8.21,8.21-8.21l0,0c4.54,0,8.21,3.67,8.21,8.21l0,0
					c0,4.54-3.67,8.21-8.21,8.21l0,0C369.06,114.05,365.39,110.38,365.39,105.84z M365.39,66.42c0-4.54,3.67-8.21,8.21-8.21l0,0
					c4.54,0,8.21,3.67,8.21,8.21l0,0c0,4.54-3.67,8.21-8.21,8.21l0,0C369.06,74.64,365.39,70.97,365.39,66.42z M365.39,27.02
					c0-4.54,3.67-8.21,8.21-8.21l0,0c4.54,0,8.21,3.67,8.21,8.21l0,0c0,4.54-3.67,8.21-8.21,8.21l0,0
					C369.06,35.23,365.39,31.56,365.39,27.02z"/>
			</g>
			<g>
				<path d="M414.5,972.88c0-4.54,3.67-8.21,8.21-8.21l0,0c4.54,0,8.21,3.67,8.21,8.21l0,0c0,4.54-3.67,8.21-8.21,8.21l0,0
					C418.16,981.09,414.5,977.42,414.5,972.88z M414.5,933.46c0-4.54,3.67-8.21,8.21-8.21l0,0c4.54,0,8.21,3.67,8.21,8.21l0,0
					c0,4.54-3.67,8.21-8.21,8.21l0,0C418.16,941.68,414.5,938.01,414.5,933.46z M414.5,894.05c0-4.54,3.67-8.21,8.21-8.21l0,0
					c4.54,0,8.21,3.67,8.21,8.21l0,0c0,4.54-3.67,8.21-8.21,8.21l0,0C418.16,902.26,414.5,898.6,414.5,894.05z M414.5,854.64
					c0-4.54,3.67-8.21,8.21-8.21l0,0c4.54,0,8.21,3.67,8.21,8.21l0,0c0,4.54-3.67,8.21-8.21,8.21l0,0
					C418.16,862.85,414.5,859.18,414.5,854.64z M414.5,815.23c0-4.54,3.67-8.21,8.21-8.21l0,0c4.54,0,8.21,3.67,8.21,8.21l0,0
					c0,4.54-3.67,8.21-8.21,8.21l0,0C418.16,823.45,414.5,819.77,414.5,815.23z M414.5,775.82c0-4.54,3.67-8.21,8.21-8.21l0,0
					c4.54,0,8.21,3.67,8.21,8.21l0,0c0,4.54-3.67,8.21-8.21,8.21l0,0C418.16,784.03,414.5,780.37,414.5,775.82z M414.5,736.41
					c0-4.54,3.67-8.21,8.21-8.21l0,0c4.54,0,8.21,3.67,8.21,8.21l0,0c0,4.54-3.67,8.21-8.21,8.21l0,0
					C418.16,744.62,414.5,740.95,414.5,736.41z M414.5,697c0-4.54,3.67-8.21,8.21-8.21l0,0c4.54,0,8.21,3.67,8.21,8.21l0,0
					c0,4.54-3.67,8.21-8.21,8.21l0,0C418.16,705.21,414.5,701.54,414.5,697z M414.5,657.59c0-4.54,3.67-8.21,8.21-8.21l0,0
					c4.54,0,8.21,3.67,8.21,8.21l0,0c0,4.54-3.67,8.21-8.21,8.21l0,0C418.16,665.8,414.5,662.13,414.5,657.59z M414.5,618.18
					c0-4.54,3.67-8.21,8.21-8.21l0,0c4.54,0,8.21,3.67,8.21,8.21l0,0c0,4.54-3.67,8.21-8.21,8.21l0,0
					C418.16,626.39,414.5,622.72,414.5,618.18z M414.5,578.77c0-4.54,3.67-8.21,8.21-8.21l0,0c4.54,0,8.21,3.67,8.21,8.21l0,0
					c0,4.54-3.67,8.21-8.21,8.21l0,0C418.16,586.98,414.5,583.31,414.5,578.77z M414.5,539.36c0-4.54,3.67-8.21,8.21-8.21l0,0
					c4.54,0,8.21,3.67,8.21,8.21l0,0c0,4.54-3.67,8.21-8.21,8.21l0,0C418.16,547.57,414.5,543.9,414.5,539.36z M414.5,499.94
					c0-4.54,3.67-8.21,8.21-8.21l0,0c4.54,0,8.21,3.67,8.21,8.21l0,0c0,4.54-3.67,8.21-8.21,8.21l0,0
					C418.16,508.16,414.5,504.49,414.5,499.94z M414.5,460.53c0-4.54,3.67-8.21,8.21-8.21l0,0c4.54,0,8.21,3.67,8.21,8.21l0,0
					c0,4.54-3.67,8.21-8.21,8.21l0,0C418.16,468.74,414.5,465.08,414.5,460.53z M414.5,421.13c0-4.54,3.67-8.21,8.21-8.21l0,0
					c4.54,0,8.21,3.67,8.21,8.21l0,0c0,4.54-3.67,8.21-8.21,8.21l0,0C418.16,429.34,414.5,425.66,414.5,421.13z M414.5,381.71
					c0-4.54,3.67-8.21,8.21-8.21l0,0c4.54,0,8.21,3.67,8.21,8.21l0,0c0,4.54-3.67,8.21-8.21,8.21l0,0
					C418.16,389.92,414.5,386.26,414.5,381.71z M414.5,342.3c0-4.54,3.67-8.21,8.21-8.21l0,0c4.54,0,8.21,3.67,8.21,8.21l0,0
					c0,4.54-3.67,8.21-8.21,8.21l0,0C418.16,350.51,414.5,346.85,414.5,342.3z M414.5,302.89c0-4.54,3.67-8.21,8.21-8.21l0,0
					c4.54,0,8.21,3.67,8.21,8.21l0,0c0,4.54-3.67,8.21-8.21,8.21l0,0C418.16,311.1,414.5,307.43,414.5,302.89z M414.5,263.48
					c0-4.54,3.67-8.21,8.21-8.21l0,0c4.54,0,8.21,3.67,8.21,8.21l0,0c0,4.54-3.67,8.21-8.21,8.21l0,0
					C418.16,271.69,414.5,268.02,414.5,263.48z M414.5,224.07c0-4.54,3.67-8.21,8.21-8.21l0,0c4.54,0,8.21,3.67,8.21,8.21l0,0
					c0,4.54-3.67,8.21-8.21,8.21l0,0C418.16,232.28,414.5,228.61,414.5,224.07z M414.5,184.66c0-4.54,3.67-8.21,8.21-8.21l0,0
					c4.54,0,8.21,3.67,8.21,8.21l0,0c0,4.54-3.67,8.21-8.21,8.21l0,0C418.16,192.87,414.5,189.2,414.5,184.66z M414.5,145.25
					c0-4.54,3.67-8.21,8.21-8.21l0,0c4.54,0,8.21,3.67,8.21,8.21l0,0c0,4.54-3.67,8.21-8.21,8.21l0,0
					C418.16,153.46,414.5,149.79,414.5,145.25z M414.5,105.84c0-4.54,3.67-8.21,8.21-8.21l0,0c4.54,0,8.21,3.67,8.21,8.21l0,0
					c0,4.54-3.67,8.21-8.21,8.21l0,0C418.16,114.05,414.5,110.38,414.5,105.84z M414.5,66.42c0-4.54,3.67-8.21,8.21-8.21l0,0
					c4.54,0,8.21,3.67,8.21,8.21l0,0c0,4.54-3.67,8.21-8.21,8.21l0,0C418.16,74.64,414.5,70.97,414.5,66.42z M414.5,27.02
					c0-4.54,3.67-8.21,8.21-8.21l0,0c4.54,0,8.21,3.67,8.21,8.21l0,0c0,4.54-3.67,8.21-8.21,8.21l0,0
					C418.16,35.23,414.5,31.56,414.5,27.02z"/>
			</g>
			<g>
				<path d="M463.92,972.88c0-4.54,3.67-8.21,8.21-8.21l0,0c4.54,0,8.21,3.67,8.21,8.21l0,0c0,4.54-3.67,8.21-8.21,8.21l0,0
					C467.59,981.09,463.92,977.42,463.92,972.88z M463.92,933.46c0-4.54,3.67-8.21,8.21-8.21l0,0c4.54,0,8.21,3.67,8.21,8.21l0,0
					c0,4.54-3.67,8.21-8.21,8.21l0,0C467.59,941.68,463.92,938.01,463.92,933.46z M463.92,894.05c0-4.54,3.67-8.21,8.21-8.21l0,0
					c4.54,0,8.21,3.67,8.21,8.21l0,0c0,4.54-3.67,8.21-8.21,8.21l0,0C467.59,902.26,463.92,898.6,463.92,894.05z M463.92,854.64
					c0-4.54,3.67-8.21,8.21-8.21l0,0c4.54,0,8.21,3.67,8.21,8.21l0,0c0,4.54-3.67,8.21-8.21,8.21l0,0
					C467.59,862.85,463.92,859.18,463.92,854.64z M463.92,815.23c0-4.54,3.67-8.21,8.21-8.21l0,0c4.54,0,8.21,3.67,8.21,8.21l0,0
					c0,4.54-3.67,8.21-8.21,8.21l0,0C467.59,823.45,463.92,819.77,463.92,815.23z M463.92,775.82c0-4.54,3.67-8.21,8.21-8.21l0,0
					c4.54,0,8.21,3.67,8.21,8.21l0,0c0,4.54-3.67,8.21-8.21,8.21l0,0C467.59,784.03,463.92,780.37,463.92,775.82z M463.92,736.41
					c0-4.54,3.67-8.21,8.21-8.21l0,0c4.54,0,8.21,3.67,8.21,8.21l0,0c0,4.54-3.67,8.21-8.21,8.21l0,0
					C467.59,744.62,463.92,740.95,463.92,736.41z M463.92,697c0-4.54,3.67-8.21,8.21-8.21l0,0c4.54,0,8.21,3.67,8.21,8.21l0,0
					c0,4.54-3.67,8.21-8.21,8.21l0,0C467.59,705.21,463.92,701.54,463.92,697z M463.92,657.59c0-4.54,3.67-8.21,8.21-8.21l0,0
					c4.54,0,8.21,3.67,8.21,8.21l0,0c0,4.54-3.67,8.21-8.21,8.21l0,0C467.59,665.8,463.92,662.13,463.92,657.59z M463.92,618.18
					c0-4.54,3.67-8.21,8.21-8.21l0,0c4.54,0,8.21,3.67,8.21,8.21l0,0c0,4.54-3.67,8.21-8.21,8.21l0,0
					C467.59,626.39,463.92,622.72,463.92,618.18z M463.92,578.77c0-4.54,3.67-8.21,8.21-8.21l0,0c4.54,0,8.21,3.67,8.21,8.21l0,0
					c0,4.54-3.67,8.21-8.21,8.21l0,0C467.59,586.98,463.92,583.31,463.92,578.77z M463.92,539.36c0-4.54,3.67-8.21,8.21-8.21l0,0
					c4.54,0,8.21,3.67,8.21,8.21l0,0c0,4.54-3.67,8.21-8.21,8.21l0,0C467.59,547.57,463.92,543.9,463.92,539.36z M463.92,499.94
					c0-4.54,3.67-8.21,8.21-8.21l0,0c4.54,0,8.21,3.67,8.21,8.21l0,0c0,4.54-3.67,8.21-8.21,8.21l0,0
					C467.59,508.16,463.92,504.49,463.92,499.94z M463.92,460.53c0-4.54,3.67-8.21,8.21-8.21l0,0c4.54,0,8.21,3.67,8.21,8.21l0,0
					c0,4.54-3.67,8.21-8.21,8.21l0,0C467.59,468.74,463.92,465.08,463.92,460.53z M463.92,421.13c0-4.54,3.67-8.21,8.21-8.21l0,0
					c4.54,0,8.21,3.67,8.21,8.21l0,0c0,4.54-3.67,8.21-8.21,8.21l0,0C467.59,429.34,463.92,425.66,463.92,421.13z M463.92,381.71
					c0-4.54,3.67-8.21,8.21-8.21l0,0c4.54,0,8.21,3.67,8.21,8.21l0,0c0,4.54-3.67,8.21-8.21,8.21l0,0
					C467.59,389.92,463.92,386.26,463.92,381.71z M463.92,342.3c0-4.54,3.67-8.21,8.21-8.21l0,0c4.54,0,8.21,3.67,8.21,8.21l0,0
					c0,4.54-3.67,8.21-8.21,8.21l0,0C467.59,350.51,463.92,346.85,463.92,342.3z M463.92,302.89c0-4.54,3.67-8.21,8.21-8.21l0,0
					c4.54,0,8.21,3.67,8.21,8.21l0,0c0,4.54-3.67,8.21-8.21,8.21l0,0C467.59,311.1,463.92,307.43,463.92,302.89z M463.92,263.48
					c0-4.54,3.67-8.21,8.21-8.21l0,0c4.54,0,8.21,3.67,8.21,8.21l0,0c0,4.54-3.67,8.21-8.21,8.21l0,0
					C467.59,271.69,463.92,268.02,463.92,263.48z M463.92,224.07c0-4.54,3.67-8.21,8.21-8.21l0,0c4.54,0,8.21,3.67,8.21,8.21l0,0
					c0,4.54-3.67,8.21-8.21,8.21l0,0C467.59,232.28,463.92,228.61,463.92,224.07z M463.92,184.66c0-4.54,3.67-8.21,8.21-8.21l0,0
					c4.54,0,8.21,3.67,8.21,8.21l0,0c0,4.54-3.67,8.21-8.21,8.21l0,0C467.59,192.87,463.92,189.2,463.92,184.66z M463.92,145.25
					c0-4.54,3.67-8.21,8.21-8.21l0,0c4.54,0,8.21,3.67,8.21,8.21l0,0c0,4.54-3.67,8.21-8.21,8.21l0,0
					C467.59,153.46,463.92,149.79,463.92,145.25z M463.92,105.84c0-4.54,3.67-8.21,8.21-8.21l0,0c4.54,0,8.21,3.67,8.21,8.21l0,0
					c0,4.54-3.67,8.21-8.21,8.21l0,0C467.59,114.05,463.92,110.38,463.92,105.84z M463.92,66.42c0-4.54,3.67-8.21,8.21-8.21l0,0
					c4.54,0,8.21,3.67,8.21,8.21l0,0c0,4.54-3.67,8.21-8.21,8.21l0,0C467.59,74.64,463.92,70.97,463.92,66.42z M463.92,27.02
					c0-4.54,3.67-8.21,8.21-8.21l0,0c4.54,0,8.21,3.67,8.21,8.21l0,0c0,4.54-3.67,8.21-8.21,8.21l0,0
					C467.59,35.23,463.92,31.56,463.92,27.02z"/>
			</g>
			<g>
				<path d="M513.35,972.88c0-4.54,3.67-8.21,8.21-8.21l0,0c4.54,0,8.21,3.67,8.21,8.21l0,0c0,4.54-3.67,8.21-8.21,8.21l0,0
					C517.02,981.09,513.35,977.42,513.35,972.88z M513.35,933.46c0-4.54,3.67-8.21,8.21-8.21l0,0c4.54,0,8.21,3.67,8.21,8.21l0,0
					c0,4.54-3.67,8.21-8.21,8.21l0,0C517.02,941.68,513.35,938.01,513.35,933.46z M513.35,894.05c0-4.54,3.67-8.21,8.21-8.21l0,0
					c4.54,0,8.21,3.67,8.21,8.21l0,0c0,4.54-3.67,8.21-8.21,8.21l0,0C517.02,902.26,513.35,898.6,513.35,894.05z M513.35,854.64
					c0-4.54,3.67-8.21,8.21-8.21l0,0c4.54,0,8.21,3.67,8.21,8.21l0,0c0,4.54-3.67,8.21-8.21,8.21l0,0
					C517.02,862.85,513.35,859.18,513.35,854.64z M513.35,815.23c0-4.54,3.67-8.21,8.21-8.21l0,0c4.54,0,8.21,3.67,8.21,8.21l0,0
					c0,4.54-3.67,8.21-8.21,8.21l0,0C517.02,823.45,513.35,819.77,513.35,815.23z M513.35,775.82c0-4.54,3.67-8.21,8.21-8.21l0,0
					c4.54,0,8.21,3.67,8.21,8.21l0,0c0,4.54-3.67,8.21-8.21,8.21l0,0C517.02,784.03,513.35,780.37,513.35,775.82z M513.35,736.41
					c0-4.54,3.67-8.21,8.21-8.21l0,0c4.54,0,8.21,3.67,8.21,8.21l0,0c0,4.54-3.67,8.21-8.21,8.21l0,0
					C517.02,744.62,513.35,740.95,513.35,736.41z M513.35,697c0-4.54,3.67-8.21,8.21-8.21l0,0c4.54,0,8.21,3.67,8.21,8.21l0,0
					c0,4.54-3.67,8.21-8.21,8.21l0,0C517.02,705.21,513.35,701.54,513.35,697z M513.35,657.59c0-4.54,3.67-8.21,8.21-8.21l0,0
					c4.54,0,8.21,3.67,8.21,8.21l0,0c0,4.54-3.67,8.21-8.21,8.21l0,0C517.02,665.8,513.35,662.13,513.35,657.59z M513.35,618.18
					c0-4.54,3.67-8.21,8.21-8.21l0,0c4.54,0,8.21,3.67,8.21,8.21l0,0c0,4.54-3.67,8.21-8.21,8.21l0,0
					C517.02,626.39,513.35,622.72,513.35,618.18z M513.35,578.77c0-4.54,3.67-8.21,8.21-8.21l0,0c4.54,0,8.21,3.67,8.21,8.21l0,0
					c0,4.54-3.67,8.21-8.21,8.21l0,0C517.02,586.98,513.35,583.31,513.35,578.77z M513.35,539.36c0-4.54,3.67-8.21,8.21-8.21l0,0
					c4.54,0,8.21,3.67,8.21,8.21l0,0c0,4.54-3.67,8.21-8.21,8.21l0,0C517.02,547.57,513.35,543.9,513.35,539.36z M513.35,499.94
					c0-4.54,3.67-8.21,8.21-8.21l0,0c4.54,0,8.21,3.67,8.21,8.21l0,0c0,4.54-3.67,8.21-8.21,8.21l0,0
					C517.02,508.16,513.35,504.49,513.35,499.94z M513.35,460.53c0-4.54,3.67-8.21,8.21-8.21l0,0c4.54,0,8.21,3.67,8.21,8.21l0,0
					c0,4.54-3.67,8.21-8.21,8.21l0,0C517.02,468.74,513.35,465.08,513.35,460.53z M513.35,421.13c0-4.54,3.67-8.21,8.21-8.21l0,0
					c4.54,0,8.21,3.67,8.21,8.21l0,0c0,4.54-3.67,8.21-8.21,8.21l0,0C517.02,429.34,513.35,425.66,513.35,421.13z M513.35,381.71
					c0-4.54,3.67-8.21,8.21-8.21l0,0c4.54,0,8.21,3.67,8.21,8.21l0,0c0,4.54-3.67,8.21-8.21,8.21l0,0
					C517.02,389.92,513.35,386.26,513.35,381.71z M513.35,342.3c0-4.54,3.67-8.21,8.21-8.21l0,0c4.54,0,8.21,3.67,8.21,8.21l0,0
					c0,4.54-3.67,8.21-8.21,8.21l0,0C517.02,350.51,513.35,346.85,513.35,342.3z M513.35,302.89c0-4.54,3.67-8.21,8.21-8.21l0,0
					c4.54,0,8.21,3.67,8.21,8.21l0,0c0,4.54-3.67,8.21-8.21,8.21l0,0C517.02,311.1,513.35,307.43,513.35,302.89z M513.35,263.48
					c0-4.54,3.67-8.21,8.21-8.21l0,0c4.54,0,8.21,3.67,8.21,8.21l0,0c0,4.54-3.67,8.21-8.21,8.21l0,0
					C517.02,271.69,513.35,268.02,513.35,263.48z M513.35,224.07c0-4.54,3.67-8.21,8.21-8.21l0,0c4.54,0,8.21,3.67,8.21,8.21l0,0
					c0,4.54-3.67,8.21-8.21,8.21l0,0C517.02,232.28,513.35,228.61,513.35,224.07z M513.35,184.66c0-4.54,3.67-8.21,8.21-8.21l0,0
					c4.54,0,8.21,3.67,8.21,8.21l0,0c0,4.54-3.67,8.21-8.21,8.21l0,0C517.02,192.87,513.35,189.2,513.35,184.66z M513.35,145.25
					c0-4.54,3.67-8.21,8.21-8.21l0,0c4.54,0,8.21,3.67,8.21,8.21l0,0c0,4.54-3.67,8.21-8.21,8.21l0,0
					C517.02,153.46,513.35,149.79,513.35,145.25z M513.35,105.84c0-4.54,3.67-8.21,8.21-8.21l0,0c4.54,0,8.21,3.67,8.21,8.21l0,0
					c0,4.54-3.67,8.21-8.21,8.21l0,0C517.02,114.05,513.35,110.38,513.35,105.84z M513.35,66.42c0-4.54,3.67-8.21,8.21-8.21l0,0
					c4.54,0,8.21,3.67,8.21,8.21l0,0c0,4.54-3.67,8.21-8.21,8.21l0,0C517.02,74.64,513.35,70.97,513.35,66.42z M513.35,27.02
					c0-4.54,3.67-8.21,8.21-8.21l0,0c4.54,0,8.21,3.67,8.21,8.21l0,0c0,4.54-3.67,8.21-8.21,8.21l0,0
					C517.02,35.23,513.35,31.56,513.35,27.02z"/>
			</g>
			<g>
				<path d="M562.61,972.88c0-4.54,3.67-8.21,8.21-8.21l0,0c4.54,0,8.21,3.67,8.21,8.21l0,0c0,4.54-3.67,8.21-8.21,8.21l0,0
					C566.28,981.09,562.61,977.42,562.61,972.88z M562.61,933.46c0-4.54,3.67-8.21,8.21-8.21l0,0c4.54,0,8.21,3.67,8.21,8.21l0,0
					c0,4.54-3.67,8.21-8.21,8.21l0,0C566.28,941.68,562.61,938.01,562.61,933.46z M562.61,894.05c0-4.54,3.67-8.21,8.21-8.21l0,0
					c4.54,0,8.21,3.67,8.21,8.21l0,0c0,4.54-3.67,8.21-8.21,8.21l0,0C566.28,902.26,562.61,898.6,562.61,894.05z M562.61,854.64
					c0-4.54,3.67-8.21,8.21-8.21l0,0c4.54,0,8.21,3.67,8.21,8.21l0,0c0,4.54-3.67,8.21-8.21,8.21l0,0
					C566.28,862.85,562.61,859.18,562.61,854.64z M562.61,815.23c0-4.54,3.67-8.21,8.21-8.21l0,0c4.54,0,8.21,3.67,8.21,8.21l0,0
					c0,4.54-3.67,8.21-8.21,8.21l0,0C566.28,823.45,562.61,819.77,562.61,815.23z M562.61,775.82c0-4.54,3.67-8.21,8.21-8.21l0,0
					c4.54,0,8.21,3.67,8.21,8.21l0,0c0,4.54-3.67,8.21-8.21,8.21l0,0C566.28,784.03,562.61,780.37,562.61,775.82z M562.61,736.41
					c0-4.54,3.67-8.21,8.21-8.21l0,0c4.54,0,8.21,3.67,8.21,8.21l0,0c0,4.54-3.67,8.21-8.21,8.21l0,0
					C566.28,744.62,562.61,740.95,562.61,736.41z M562.61,697c0-4.54,3.67-8.21,8.21-8.21l0,0c4.54,0,8.21,3.67,8.21,8.21l0,0
					c0,4.54-3.67,8.21-8.21,8.21l0,0C566.28,705.21,562.61,701.54,562.61,697z M562.61,657.59c0-4.54,3.67-8.21,8.21-8.21l0,0
					c4.54,0,8.21,3.67,8.21,8.21l0,0c0,4.54-3.67,8.21-8.21,8.21l0,0C566.28,665.8,562.61,662.13,562.61,657.59z M562.61,618.18
					c0-4.54,3.67-8.21,8.21-8.21l0,0c4.54,0,8.21,3.67,8.21,8.21l0,0c0,4.54-3.67,8.21-8.21,8.21l0,0
					C566.28,626.39,562.61,622.72,562.61,618.18z M562.61,578.77c0-4.54,3.67-8.21,8.21-8.21l0,0c4.54,0,8.21,3.67,8.21,8.21l0,0
					c0,4.54-3.67,8.21-8.21,8.21l0,0C566.28,586.98,562.61,583.31,562.61,578.77z M562.61,539.36c0-4.54,3.67-8.21,8.21-8.21l0,0
					c4.54,0,8.21,3.67,8.21,8.21l0,0c0,4.54-3.67,8.21-8.21,8.21l0,0C566.28,547.57,562.61,543.9,562.61,539.36z M562.61,499.94
					c0-4.54,3.67-8.21,8.21-8.21l0,0c4.54,0,8.21,3.67,8.21,8.21l0,0c0,4.54-3.67,8.21-8.21,8.21l0,0
					C566.28,508.16,562.61,504.49,562.61,499.94z M562.61,460.53c0-4.54,3.67-8.21,8.21-8.21l0,0c4.54,0,8.21,3.67,8.21,8.21l0,0
					c0,4.54-3.67,8.21-8.21,8.21l0,0C566.28,468.74,562.61,465.08,562.61,460.53z M562.61,421.13c0-4.54,3.67-8.21,8.21-8.21l0,0
					c4.54,0,8.21,3.67,8.21,8.21l0,0c0,4.54-3.67,8.21-8.21,8.21l0,0C566.28,429.34,562.61,425.66,562.61,421.13z M562.61,381.71
					c0-4.54,3.67-8.21,8.21-8.21l0,0c4.54,0,8.21,3.67,8.21,8.21l0,0c0,4.54-3.67,8.21-8.21,8.21l0,0
					C566.28,389.92,562.61,386.26,562.61,381.71z M562.61,342.3c0-4.54,3.67-8.21,8.21-8.21l0,0c4.54,0,8.21,3.67,8.21,8.21l0,0
					c0,4.54-3.67,8.21-8.21,8.21l0,0C566.28,350.51,562.61,346.85,562.61,342.3z M562.61,302.89c0-4.54,3.67-8.21,8.21-8.21l0,0
					c4.54,0,8.21,3.67,8.21,8.21l0,0c0,4.54-3.67,8.21-8.21,8.21l0,0C566.28,311.1,562.61,307.43,562.61,302.89z M562.61,263.48
					c0-4.54,3.67-8.21,8.21-8.21l0,0c4.54,0,8.21,3.67,8.21,8.21l0,0c0,4.54-3.67,8.21-8.21,8.21l0,0
					C566.28,271.69,562.61,268.02,562.61,263.48z M562.61,224.07c0-4.54,3.67-8.21,8.21-8.21l0,0c4.54,0,8.21,3.67,8.21,8.21l0,0
					c0,4.54-3.67,8.21-8.21,8.21l0,0C566.28,232.28,562.61,228.61,562.61,224.07z M562.61,184.66c0-4.54,3.67-8.21,8.21-8.21l0,0
					c4.54,0,8.21,3.67,8.21,8.21l0,0c0,4.54-3.67,8.21-8.21,8.21l0,0C566.28,192.87,562.61,189.2,562.61,184.66z M562.61,145.25
					c0-4.54,3.67-8.21,8.21-8.21l0,0c4.54,0,8.21,3.67,8.21,8.21l0,0c0,4.54-3.67,8.21-8.21,8.21l0,0
					C566.28,153.46,562.61,149.79,562.61,145.25z M562.61,105.84c0-4.54,3.67-8.21,8.21-8.21l0,0c4.54,0,8.21,3.67,8.21,8.21l0,0
					c0,4.54-3.67,8.21-8.21,8.21l0,0C566.28,114.05,562.61,110.38,562.61,105.84z M562.61,66.42c0-4.54,3.67-8.21,8.21-8.21l0,0
					c4.54,0,8.21,3.67,8.21,8.21l0,0c0,4.54-3.67,8.21-8.21,8.21l0,0C566.28,74.64,562.61,70.97,562.61,66.42z M562.61,27.02
					c0-4.54,3.67-8.21,8.21-8.21l0,0c4.54,0,8.21,3.67,8.21,8.21l0,0c0,4.54-3.67,8.21-8.21,8.21l0,0
					C566.28,35.23,562.61,31.56,562.61,27.02z"/>
			</g>
		</g>
		<path d="M119.07,815.23c0-4.54,3.67-8.21,8.21-8.21l0,0c4.54,0,8.21,3.67,8.21,8.21l0,0c0,4.54-3.67,8.21-8.21,8.21l0,0
			C122.75,823.45,119.07,819.78,119.07,815.23z"/>
	</g>
</g>
</svg>
